<svg xmlns="http://www.w3.org/2000/svg" viewBox="-9137 -2720 10 10">
  <defs>
    <style>
      .cls-1 {
        fill: #464646;
      }
    </style>
  </defs>
  <path id="path-9" class="cls-1" d="M6.074,5.041,9.739,1.366A.816.816,0,1,0,8.588.211L5.027,3.886,1.362.211a.82.82,0,0,0-1.152,0,.825.825,0,0,0,0,1.155L3.876,5.041.211,8.61a.825.825,0,0,0,0,1.155.8.8,0,0,0,.524.21.8.8,0,0,0,.524-.21L4.923,6.09,8.588,9.765a.758.758,0,0,0,1.047,0,.825.825,0,0,0,0-1.155Z" transform="translate(-9136.975 -2719.975)"/>
</svg>
