<?xml version="1.0" encoding="utf-8"?>
<!-- Generator: Adobe Illustrator 19.2.1, SVG Export Plug-In . SVG Version: 6.00 Build 0)  -->
<svg version="1.1" id="Слой_1" xmlns="http://www.w3.org/2000/svg" xmlns:xlink="http://www.w3.org/1999/xlink" x="0px" y="0px"
	 viewBox="0 0 20 20" style="enable-background:new 0 0 20 20;" xml:space="preserve">
<style type="text/css">
	.st0{fill:#00AFF0;}
	.st1{fill:#FFFFFF;}
</style>
<g transform="translate(80 200)">
	<path class="st0" d="M-70-180.8c-5.1,0-9.2-4.1-9.2-9.2s4.1-9.2,9.2-9.2c5.1,0,9.2,4.1,9.2,9.2C-60.8-184.9-64.9-180.8-70-180.8
		C-70-180.8-70-180.8-70-180.8z"/>
	<path class="st1" d="M-70-198.5c4.7,0,8.5,3.8,8.5,8.5s-3.8,8.5-8.5,8.5s-8.5-3.8-8.5-8.5C-78.5-194.7-74.7-198.5-70-198.5
		C-70-198.5-70-198.5-70-198.5 M-70-200c-5.5,0-10,4.5-10,10s4.5,10,10,10s10-4.5,10-10C-60-195.5-64.5-200-70-200z"/>
	<path class="st1" d="M-69.6-191.3c0.5-0.4,1-0.7,1-1.3c0-0.6-0.5-1.1-1.4-1.1c-0.8,0-1.5,0.4-1.9,1l-0.6-0.7
		c0.6-0.8,1.6-1.2,2.6-1.2c1.5,0,2.4,0.8,2.4,1.9c0,1-0.7,1.5-1.4,2c-0.5,0.4-1,0.7-1,1.2c0,0.2,0.1,0.4,0.3,0.6l-0.7,0.3
		c-0.3-0.2-0.5-0.6-0.5-1C-70.7-190.4-70.1-190.8-69.6-191.3z M-70-186.7c0.4,0,0.7,0.3,0.7,0.7c0,0.4-0.3,0.7-0.7,0.7
		c-0.4,0-0.7-0.3-0.7-0.7C-70.7-186.4-70.4-186.7-70-186.7C-70-186.7-70-186.7-70-186.7z"/>
	<path class="st1" d="M-70-185.1c-0.5,0-0.9-0.4-0.9-0.9c0-0.5,0.4-1,0.9-1c0.5,0,0.9,0.4,0.9,0.9C-69.1-185.6-69.5-185.1-70-185.1z
		 M-70-186.5c-0.2,0-0.4,0.2-0.4,0.4c0,0.2,0.2,0.4,0.4,0.4s0.4-0.2,0.4-0.4l0,0C-69.6-186.3-69.8-186.5-70-186.5z M-70.3-188.4
		c-0.1,0-0.1,0-0.2-0.1c-0.3-0.3-0.5-0.7-0.5-1.1c0.1-0.8,0.6-1.5,1.3-1.8l0,0c0.6-0.4,0.9-0.7,0.9-1.1c0-0.5-0.5-0.9-1.2-0.9
		c-0.7,0-1.3,0.3-1.7,0.9c0,0.1-0.1,0.1-0.2,0.1s-0.1,0-0.2-0.1l-0.6-0.7c-0.1-0.1-0.1-0.2,0-0.3c0,0,0,0,0,0
		c0.6-0.9,1.7-1.4,2.8-1.4c1.6,0,2.6,0.9,2.6,2.1s-0.8,1.7-1.5,2.2c-0.6,0.4-0.9,0.6-0.9,1c0,0.2,0.1,0.3,0.2,0.4
		c0.1,0.1,0.1,0.1,0.1,0.2c0,0.1,0,0.1-0.1,0.2C-69.5-188.8-70.3-188.4-70.3-188.4z M-69.4-191L-69.4-191c-0.6,0.4-1.1,0.7-1.1,1.4
		c0,0.3,0.1,0.5,0.3,0.7l0.3-0.1c-0.1-0.2-0.2-0.3-0.2-0.5c0-0.7,0.5-1,1.1-1.4c0.7-0.5,1.3-0.9,1.3-1.8c0-1-0.9-1.6-2.1-1.6
		c-0.9,0-1.7,0.3-2.3,1l0.3,0.3c0.4-0.7,1.1-1,1.8-1c1.2,0,1.7,0.7,1.7,1.4C-68.3-191.8-68.9-191.4-69.4-191z"/>
</g>
</svg>
