<svg xmlns="http://www.w3.org/2000/svg" viewBox="111.25 269.25 27.5 27.5">
  <defs>
    <style>
      .cls-1, .cls-4 {
        fill: none;
      }

      .cls-1, .cls-2 {
        stroke: #b4b4b4;
        stroke-width: 1.5px;
      }

      .cls-2 {
        fill: #fff;
      }

      .cls-3 {
        stroke: none;
      }
    </style>
  </defs>
  <g id="Group_1" data-name="Group 1" transform="translate(-741 152)">
    <path id="ellipse" class="cls-1" d="M13,0A13,13,0,1,1,0,13,13,13,0,0,1,13,0Z" transform="translate(853 118)"/>
    <g id="Group_603" data-name="Group 603" transform="translate(247 -19)">
      <path id="Path_413" data-name="Path 413" class="cls-1" d="M7,.75A6.25,6.25,0,1,1,.75,7,6.25,6.25,0,0,1,7,.75Z" transform="translate(626 158) rotate(180)"/>
      <g id="Ellipse_120" data-name="Ellipse 120" class="cls-2" transform="translate(622 148) rotate(180)">
        <circle class="cls-3" cx="3" cy="3" r="3"/>
        <circle class="cls-4" cx="3" cy="3" r="2.25"/>
      </g>
      <g id="Ellipse_121" data-name="Ellipse 121" class="cls-2" transform="translate(617 156) rotate(180)">
        <circle class="cls-3" cx="3" cy="3" r="3"/>
        <circle class="cls-4" cx="3" cy="3" r="2.25"/>
      </g>
      <path id="Path_414" data-name="Path 414" class="cls-2" d="M3,.75A2.25,2.25,0,1,1,.75,3,2.25,2.25,0,0,1,3,.75Z" transform="translate(627 156) rotate(180)"/>
    </g>
  </g>
</svg>
