<svg xmlns="http://www.w3.org/2000/svg" width="26" height="26" viewBox="0 0 26 26">
  <g id="Group_2" data-name="Group 2" transform="translate(-1102 -397)">
    <circle id="ellipse" cx="13" cy="13" r="13" transform="translate(1102 397)" fill="#0096c8"/>
    <g id="Group_1" data-name="Group 1" transform="translate(496 259)">
      <g id="Ellipse_1" data-name="Ellipse 1" transform="translate(626 158) rotate(180)" fill="none" stroke="#fff" stroke-width="1.5">
        <circle cx="7" cy="7" r="7" stroke="none"/>
        <circle cx="7" cy="7" r="6.25" fill="none"/>
      </g>
      <g id="Ellipse_2" data-name="Ellipse 2" transform="translate(622 148) rotate(180)" fill="#0096c8" stroke="#fff" stroke-width="1.5">
        <circle cx="3" cy="3" r="3" stroke="none"/>
        <circle cx="3" cy="3" r="2.25" fill="none"/>
      </g>
      <path id="Path_1" data-name="Path 1" d="M3,.75A2.25,2.25,0,1,1,.75,3,2.25,2.25,0,0,1,3,.75Z" transform="translate(617 156) rotate(180)" fill="#0096c8" stroke="#fff" stroke-width="1.5"/>
      <path id="Path_2" data-name="Path 2" d="M3,.75A2.25,2.25,0,1,1,.75,3,2.25,2.25,0,0,1,3,.75Z" transform="translate(627 156) rotate(180)" fill="#0096c8" stroke="#fff" stroke-width="1.5"/>
    </g>
  </g>
</svg>
