<svg xmlns="http://www.w3.org/2000/svg" viewBox="-16518 2208 20 20">
  <defs>
    <style>
      .cls-1 {
        fill: #464646;
      }

      .cls-2 {
        fill: #fff;
      }

      .cls-3 {
        fill: none;
      }
    </style>
  </defs>
  <g id="group-489" transform="translate(-16518 2208)">
    <circle id="ellipse" class="cls-1" cx="10" cy="10" r="10"/>
    <g id="group">
      <path id="path" class="cls-2" d="M10.443,18.771a7.236,7.236,0,0,0,7.314-7.314v-.343A4.594,4.594,0,0,0,19.014,9.8a4.408,4.408,0,0,1-1.486.4,2.852,2.852,0,0,0,1.143-1.429,3.917,3.917,0,0,1-1.6.629,2.5,2.5,0,0,0-1.886-.8,2.561,2.561,0,0,0-2.571,2.571,1.762,1.762,0,0,0,.057.571A7.531,7.531,0,0,1,7.357,9.057a2.58,2.58,0,0,0,.8,3.429,2.06,2.06,0,0,1-1.143-.343V12.2a2.523,2.523,0,0,0,2.057,2.514,2.868,2.868,0,0,1-.686.114,1.114,1.114,0,0,1-.457-.057,2.521,2.521,0,0,0,2.4,1.771,5.151,5.151,0,0,1-3.2,1.086,2.344,2.344,0,0,1-.629-.057,7.28,7.28,0,0,0,3.943,1.2" transform="translate(-2.786 -3.686)"/>
      <rect id="rectangle" class="cls-3" width="20" height="20"/>
    </g>
  </g>
</svg>
