<?xml version="1.0" encoding="utf-8"?>
<!-- Generator: Adobe Illustrator 19.2.1, SVG Export Plug-In . SVG Version: 6.00 Build 0)  -->
<svg version="1.1" id="Слой_1" xmlns="http://www.w3.org/2000/svg" xmlns:xlink="http://www.w3.org/1999/xlink" x="0px" y="0px"
	 viewBox="0 0 20 20" style="enable-background:new 0 0 20 20;" xml:space="preserve">
<style type="text/css">
	.st0{fill:#FFFFFF;}
	.st1{fill:#464646;}
	.st2{fill:#787878;}
</style>
<g transform="translate(139 572.025)">
	<path class="st0" d="M-131.2-558.9l-6,6h-1l0.1-1l5.9-5.9"/>
	<path class="st1" d="M-139-552l0.2-2.2l6.1-6.2l2,2l-6.1,6.2L-139-552z"/>
	<path class="st1" d="M-139-552l0.2-2.2l6.1-6.2l2,2l-6.1,6.2L-139-552z"/>
	<path class="st0" d="M-126.8-559.5c0.8,0.8-0.2,3-1,3.8l-7.6-7.5c0.8-0.8,3-1.8,3.8-1l3.2-3.2c-0.8-0.8,0.2-3,1-3.8l7.5,7.5
		c-0.8,0.8-3,1.8-3.8,1L-126.8-559.5z"/>
	<path class="st2" d="M-127.8-554.9c-0.2,0-0.4-0.1-0.5-0.2l-7.6-7.6c-0.3-0.3-0.3-0.8,0-1.1c0.7-0.7,2.8-1.9,4.2-1.4l2.4-2.4
		c-0.5-1.4,0.7-3.5,1.4-4.2c0.3-0.3,0.8-0.3,1.1,0l7.5,7.5c0.2,0.2,0.3,0.4,0.3,0.6c0,0.2-0.1,0.4-0.2,0.5c-0.7,0.7-2.8,1.8-4.2,1.4
		l-2.4,2.4c0.5,1.4-0.7,3.5-1.4,4.2C-127.4-555-127.6-554.9-127.8-554.9z M-134.2-563.2l6.3,6.3c0.5-0.8,0.8-1.9,0.5-2.2
		c-0.3-0.3-0.3-0.7,0-1l3.2-3.2c0.3-0.3,0.8-0.3,1.1,0c0.2,0.2,1.3-0.1,2.2-0.5l-6.3-6.3c-0.2,0.3-0.4,0.7-0.5,1
		c-0.2,0.7-0.2,1.1-0.1,1.2c0.3,0.3,0.3,0.8,0,1.1l-3.2,3.1c-0.3,0.3-0.8,0.3-1.1,0C-132.3-563.9-133.4-563.6-134.2-563.2z"/>
</g>
</svg>
